HIERARCHY
ROOT Hips
{
    OFFSET 0.000000 0.000000 0.000000
    CHANNELS 6 Xposition Yposition Zposition Zrotation Xrotation Yrotation
    JOINT Spine
    {
        OFFSET -0.000000 7.790525 0.000000
        CHANNELS 3 Zrotation Xrotation Yrotation
        JOINT Spine1
        {
            OFFSET -0.000000 20.430923 0.000000
            CHANNELS 3 Zrotation Xrotation Yrotation
            JOINT Neck
            {
                OFFSET -0.000000 22.331051 0.000000
                CHANNELS 3 Zrotation Xrotation Yrotation
                JOINT Head
                {
                    OFFSET -0.000000 14.725992 1.900128
                    CHANNELS 3 Zrotation Xrotation Yrotation
                    End Site
                    {
                        OFFSET -0.000000 19.001280 0.000000
                    }
                }
            }
            JOINT LeftShoulder
            {
                OFFSET 3.812537 19.294388 -0.177115
                CHANNELS 3 Zrotation Xrotation Yrotation
                JOINT LeftArm
                {
                    OFFSET 9.162892 0.000000 0.000000
                    CHANNELS 3 Zrotation Xrotation Yrotation
                    JOINT LeftForeArm
                    {
                        OFFSET 30.063545 0.000000 0.000000
                        CHANNELS 3 Zrotation Xrotation Yrotation
                        JOINT LeftHand
                        {
                            OFFSET 28.325521 0.000000 0.000000
                            CHANNELS 3 Zrotation Xrotation Yrotation
                            End Site
                            {
                                OFFSET 14.250961 0.000000 0.000000
                            }
                        }
                    }
                }
            }
            JOINT RightShoulder
            {
                OFFSET -3.786349 19.294388 -0.177115
                CHANNELS 3 Zrotation Xrotation Yrotation
                JOINT RightArm
                {
                    OFFSET -9.162892 0.000000 0.000000
                    CHANNELS 3 Zrotation Xrotation Yrotation
                    JOINT RightForeArm
                    {
                        OFFSET -30.063545 0.000000 0.000000
                        CHANNELS 3 Zrotation Xrotation Yrotation
                        JOINT RightHand
                        {
                            OFFSET -28.325521 0.000000 0.000000
                            CHANNELS 3 Zrotation Xrotation Yrotation
                            End Site
                            {
                                OFFSET -14.250961 0.000000 0.000000
                            }
                        }
                    }
                }
            }
        }
    }
    JOINT LeftUpLeg
    {
        OFFSET 9.500640 0.000000 0.000000
        CHANNELS 3 Zrotation Xrotation Yrotation
        JOINT LeftLeg
        {
            OFFSET -0.000000 -41.640518 0.000000
            CHANNELS 3 Zrotation Xrotation Yrotation
            JOINT LeftFoot
            {
                OFFSET -0.000000 -37.182968 0.000000
                CHANNELS 3 Zrotation Xrotation Yrotation
                JOINT LeftToeBase
                {
                    OFFSET -0.000000 -6.175416 14.250961
                    CHANNELS 3 Zrotation Xrotation Yrotation
                    End Site
                    {
                        OFFSET -0.000000 0.000000 3.800256
                    }
                }
            }
        }
    }
    JOINT RightUpLeg
    {
        OFFSET -9.500640 0.000000 0.000000
        CHANNELS 3 Zrotation Xrotation Yrotation
        JOINT RightLeg
        {
            OFFSET -0.000000 -41.640518 0.000000
            CHANNELS 3 Zrotation Xrotation Yrotation
            JOINT RightFoot
            {
                OFFSET -0.000000 -37.182968 0.000000
                CHANNELS 3 Zrotation Xrotation Yrotation
                JOINT RightToeBase
                {
                    OFFSET -0.000000 -6.175416 14.250961
                    CHANNELS 3 Zrotation Xrotation Yrotation
                    End Site
                    {
                        OFFSET -0.000000 0.000000 3.800256
                    }
                }
            }
        }
    }
}
MOTION
Frames:    4
Frame Time:    0.010000
39.648788    89.333031    77.039131    0.235798    0.102952    4.687208    -1.999421    -10.279297    -1.077366    5.110009    5.692316    -0.555406    1.094350    16.653938    2.957867    -8.741954    -4.377117    4.159984    -3.304510    5.634491    1.179866    -63.687561    61.845234    -15.152557    11.552959    -22.297562    -1.866720    -31.043222    -20.622093    -5.797509    0.415009    7.424546    -5.033471    -51.662109    82.115242    122.027016    -20.859867    -30.466290    3.635917    26.242277    -26.813494    14.899033    1.387764    2.366908    5.994199    -0.604814    8.524393    3.669651    -3.434686    -9.552937    14.701005    0.000000    0.000000    0.000000    -6.348110    4.830127    -1.209938    2.159307    2.139464    -1.657234    2.651954    -6.278375    -5.831369    0.000000    0.000000    0.000000    
39.657204    89.330864    77.012344    0.192739    0.163760    4.685853    -2.051454    -10.285181    -1.142035    5.241973    5.641432    -0.579430    1.176199    16.636917    2.896379    -9.045808    -4.303987    4.152738    -3.352236    5.650893    1.181381    -63.270241    62.523487    -15.633338    12.051524    -22.623108    -1.755921    -31.360842    -20.866573    -6.070970    0.210931    7.556148    -5.209169    -51.358051    81.760330    121.909134    -20.775507    -30.268351    3.542057    26.571299    -26.509422    15.254061    1.431254    2.290824    5.982666    -0.635387    8.522401    3.632714    -3.418593    -9.535207    14.742220    0.000000    0.000000    0.000000    -6.460133    4.753740    -0.898305    2.471874    2.181551    -1.419546    1.967434    -6.380401    -6.307744    0.000000    0.000000    0.000000    
39.657204    89.330864    77.012344    0.192739    0.163760    4.685853    -2.051454    -10.285181    -1.142035    5.241973    5.641432    -0.579430    1.176199    16.636917    2.896379    -9.045808    -4.303987    4.152738    -3.352236    5.650893    1.181381    -63.270241    62.523487    -15.633338    12.051524    -22.623108    -1.755921    -31.360842    -20.866573    -6.070970    0.210931    7.556148    -5.209169    -51.358051    81.760330    121.909134    -20.775507    -30.268351    3.542057    26.571299    -26.509422    15.254061    1.431254    2.290824    5.982666    -0.635387    8.522401    3.632714    -3.418593    -9.535207    14.742220    0.000000    0.000000    0.000000    -6.460133    4.753740    -0.898305    2.471874    2.181551    -1.419546    1.967434    -6.380401    -6.307744    0.000000    0.000000    0.000000    
39.657204    89.330864    77.012344    0.192739    0.163760    4.685853    -2.051454    -10.285181    -1.142035    5.241973    5.641432    -0.579430    1.176199    16.636917    2.896379    -9.045808    -4.303987    4.152738    -3.352236    5.650893    1.181381    -63.270241    62.523487    -15.633338    12.051524    -22.623108    -1.755921    -31.360842    -20.866573    -6.070970    0.210931    7.556148    -5.209169    -51.358051    81.760330    121.909134    -20.775507    -30.268351    3.542057    26.571299    -26.509422    15.254061    1.431254    2.290824    5.982666    -0.635387    8.522401    3.632714    -3.418593    -9.535207    14.742220    0.000000    0.000000    0.000000    -6.460133    4.753740    -0.898305    2.471874    2.181551    -1.419546    1.967434    -6.380401    -6.307744    0.000000    0.000000    0.000000    
